#!OML:ASF I:\Actors\actors\Patient Classification 2\Patient 1\Session 1\actor1.ASF
:FULLY-SPECIFIED
:DEGREES
395
root -0.0445755 18.8723 5.08074 9.12839 1.75121 -1.23159
lowerback 25.5247 0.237441 0.258166
upperback 7.19213 0.483085 1.31919
thorax -6.2131 0.228837 1.14906
lowerneck -19.1802 -1.93906 -2.34305
upperneck 14.5578 -2.39322 2.15695
head 7.68984 -1.05543 0.807596
rclavicle 1.09332e-015 -2.98177e-015
rhumerus -54.8454 53.084 -127.724
rradius 116.614
rwrist -8.66115
rhand 0.265164 -25.1243
rfingers 7.12502
rthumb 25.8443 -53.3883
lclavicle 1.09332e-015 -2.98177e-015
lhumerus -20.3753 -53.7663 115.524
lradius 131.442
lwrist 12.797
lhand -27.5087 -64.7368
lfingers 7.12502
lthumb -0.911412 -34.759
rfemur -3.33887 -1.34629 13.26
rtibia 7.15625e-015
rfoot -15.5819 -14.8648
rtoes -6.2557
lfemur -20.3122 -0.494147 -14.6495
ltibia 26.2464
lfoot -15.8753 5.50639
ltoes -56.1405
396
root -0.0513264 18.8723 5.07978 9.08395 1.63942 -1.27644
lowerback 25.5174 0.197239 0.172684
upperback 7.1919 0.414623 1.37884
thorax -6.20935 0.195734 1.284
lowerneck -19.0603 -1.85961 -2.36505
upperneck 14.4346 -2.25968 2.04952
head 7.62427 -1.00508 0.79253
rclavicle 6.55989e-015 1.0138e-014
rhumerus -54.8454 53.084 -127.724
rradius 116.614
rwrist -8.66115
rhand 0.265164 -25.1243
rfingers 7.12502
rthumb 25.8443 -53.3883
lclavicle 6.55989e-015 1.0138e-014
lhumerus -21.0009 -52.6738 115.742
lradius 130.583
lwrist 10.7563
lhand -27.5421 -67.3046
lfingers 7.12502
lthumb -0.943621 -37.3269
rfemur -3.32178 -1.22158 13.3167
rtibia -7.95139e-016
rfoot -15.5857 -14.8628
rtoes -6.25829
lfemur -20.233 -0.488847 -14.5776
ltibia 26.2278
lfoot -15.9351 5.59558
ltoes -56.1038
397
root -0.0591223 18.8722 5.07822 9.04348 1.51566 -1.29342
lowerback 25.5019 0.16425 0.137002
upperback 7.22711 0.361665 1.37129
thorax -6.16173 0.169912 1.31199
lowerneck -19.0593 -1.8315 -2.4453
upperneck 14.3414 -2.20893 2.10726
head 7.59367 -0.979967 0.830831
rclavicle 3.37934e-015 -1.98785e-015
rhumerus -54.8454 53.084 -127.724
rradius 116.614
rwrist -8.66115
rhand 0.265164 -25.1243
rfingers 7.12502
rthumb 25.8443 -53.3883
lclavicle 3.37934e-015 -1.98785e-015
lhumerus -21.5668 -51.9247 115.916
lradius 129.717
lwrist 8.958
lhand -26.6334 -69.6384
lfingers 7.12502
lthumb -0.0660277 -39.6587
rfemur -3.31029 -1.09008 13.3429
rtibia 2.3059e-014
rfoot -15.6212 -14.8506
rtoes -6.24626
lfemur -20.153 -0.47433 -14.5377
ltibia 26.1954
lfoot -15.954 5.69907
ltoes -56.1289
398
root -0.0681929 18.8726 5.07787 9.04217 1.35357 -1.26572
lowerback 23.6573 -0.0119637 0.772368
upperback 8.39312 0.208001 0.781587
thorax -3.96088 0.101985 0.346307
lowerneck -19.2252 -1.87535 -2.19072
upperneck 13.2889 -2.42514 2.71609
head 7.28465 -1.01232 0.964013
rclavicle -4.37326e-015 -8.54774e-015
rhumerus -54.8454 53.084 -127.724
rradius 116.614
rwrist -8.66115
rhand 0.265164 -25.1243
rfingers 7.12502
rthumb 25.8443 -53.3883
lclavicle -4.37326e-015 -8.54774e-015
lhumerus -19.4769 -52.3337 113.296
lradius 128.961
lwrist 8.22897
lhand -24.934 -70.8727
lfingers 7.12502
lthumb 1.57534 -40.8988
rfemur -3.34465 -0.932086 13.3233
rtibia 6.36111e-015
rfoot -15.622 -14.8649
rtoes -6.46323
lfemur -20.1021 -0.428733 -14.5467
ltibia 26.1669
lfoot -15.9673 5.77723
ltoes -56.1702
399
root -0.0800657 18.8741 5.07713 9.07899 1.18644 -1.22831
lowerback 23.5854 0.0954065 0.68177
upperback 8.38828 0.321268 0.738146
thorax -3.93097 0.156499 0.321582
lowerneck -19.2651 -1.98958 -2.22656
upperneck 13.3421 -2.59868 2.87333
head 7.31626 -1.08126 1.00079
rclavicle 2.13694e-015 4.77083e-015
rhumerus -54.8454 53.084 -127.724
rradius 116.614
rwrist -8.66115
rhand 0.265164 -25.1243
rfingers 7.12502
rthumb 25.8443 -53.3883
lclavicle 2.13694e-015 4.77083e-015
lhumerus -19.4383 -52.0663 113.274
lradius 128.5
lwrist 8.43093
lhand -23.3834 -70.8029
lfingers 7.12502
lthumb 3.07283 -40.8453
rfemur -3.4254 -0.773685 13.3083
rtibia -2.38542e-015
rfoot -15.5983 -14.9006
rtoes -6.66025
lfemur -20.0917 -0.340443 -14.5586
ltibia 26.1425
lfoot -15.9825 5.82302
ltoes -56.2062
